<svg xmlns="http://www.w3.org/2000/svg" width="16" height="16" viewBox="0 0 16 16">
  <g id="グループ_5824" data-name="グループ 5824" transform="translate(-331 -426)">
    <g id="楕円形_132" data-name="楕円形 132" transform="translate(331 426)" fill="none" stroke="#00838c" stroke-width="1">
      <circle cx="8" cy="8" r="8" stroke="none"/>
      <circle cx="8" cy="8" r="7.5" fill="none"/>
    </g>
    <g id="グループ_2577" data-name="グループ 2577" transform="translate(336.443 430.002)">
      <ellipse id="楕円形_131" data-name="楕円形 131" cx="0.771" cy="0.776" rx="0.771" ry="0.776" transform="translate(1.374 6.445)" fill="#00838c"/>
      <path id="パス_2000" data-name="パス 2000" d="M.12,1.45l.6.477a.322.322,0,0,0,.412-.009.809.809,0,0,1,.3-.263,1.913,1.913,0,0,1,.976-.237,1.483,1.483,0,0,1,.962.344,1.078,1.078,0,0,1,.254.31.565.565,0,0,1,.072.258,1.069,1.069,0,0,1-.11.5,1.021,1.021,0,0,1-.194.261,2.185,2.185,0,0,1-.475.34c-.187.1-.387.2-.59.309a1.828,1.828,0,0,0-.658.589,1.6,1.6,0,0,0-.206.458,1.949,1.949,0,0,0-.066.515v.343a.322.322,0,0,0,.322.322h.775a.322.322,0,0,0,.322-.322V5.308a.525.525,0,0,1,.015-.14.171.171,0,0,1,.041-.078.547.547,0,0,1,.144-.105c.116-.065.3-.153.515-.268a3.425,3.425,0,0,0,1.027-.8,2.371,2.371,0,0,0,.4-.7,2.575,2.575,0,0,0,.153-.895,1.977,1.977,0,0,0-.234-.916A2.583,2.583,0,0,0,3.9.4,2.93,2.93,0,0,0,2.407,0,3.335,3.335,0,0,0,.727.424,1.876,1.876,0,0,0,.111.956.321.321,0,0,0,.12,1.45" transform="translate(0 -0.001)" fill="#00838c"/>
    </g>
  </g>
</svg>
